<svg xmlns="http://www.w3.org/2000/svg" width="480" height="480" viewBox="0 0 24 24">
    <rect x="15" fill="#403310"/><rect x="8" y="1"/><rect x="14" y="1" fill="#3e350e"/><rect x="9" y="2" fill="#3f360f"/><rect x="14" y="2" fill="#403310"/><rect x="9" y="3"/><rect x="13" y="3" fill="#3f3210"/><rect x="10" y="4" fill="#403310"/><rect x="12" y="4"/><rect x="14" y="4" fill="#403310"/><rect x="15" y="4"/><rect x="16" y="4"/><rect x="17" y="4"/><rect x="6" y="5" fill="#3e350e"/><rect x="7" y="5"/><rect x="8" y="5"/><rect x="11" y="5" fill="#3e350e"/><rect x="12" y="5"/><rect x="13" y="5" fill="#3e3410"/><rect x="5" y="6" fill="#3e350e"/><rect x="9" y="6" fill="#3f360f"/><rect x="10" y="6" fill="#766841"/><rect x="11" y="6" fill="#634c16"/><rect x="12" y="6" fill="#614b19"/><rect x="13" y="6" fill="#7b6941"/><rect x="14" y="6" fill="#a49985"/><rect x="15" y="6" fill="#d8d1c9"/><rect x="16" y="6" fill="#eef2f1"/><rect x="4" y="7" fill="#403310"/><rect x="10" y="7" fill="#403311"/><rect x="11" y="7" fill="#edcd16"/><rect x="12" y="7" fill="#eece19"/><rect x="13" y="7" fill="#cda811"/><rect x="14" y="7" fill="#a4810b"/><rect x="15" y="7" fill="#6b4f06"/><rect x="16" y="7" fill="#a0997d"/><rect x="17" y="7" fill="#eae7e2"/><rect x="4" y="8"/><rect x="7" y="8" fill="#997004"/><rect x="8" y="8"/><rect x="11" y="8" fill="#403310"/><rect x="12" y="8" fill="#fbda1d"/><rect x="13" y="8" fill="#f5d61c"/><rect x="14" y="8" fill="#eece19"/><rect x="15" y="8" fill="#e7be14"/><rect x="16" y="8" fill="#91710c"/><rect x="17" y="8" fill="#766539"/><rect x="18" y="8" fill="#d9dad2"/><rect x="4" y="9"/><rect x="7" y="9" fill="#403110"/><rect x="8" y="9"/><rect x="9" y="9" fill="#010101"/><rect x="12" y="9"/><rect x="13" y="9" fill="#ffe320"/><rect x="14" y="9" fill="#40340e"/><rect x="15" y="9" fill="#403310"/><rect x="16" y="9" fill="#403310"/><rect x="17" y="9" fill="#3a3410"/><rect x="18" y="9" fill="#69561e"/><rect x="19" y="9" fill="#deddd8"/><rect x="3" y="10" fill="#f1f3f2"/><rect x="4" y="10" fill="#928565"/><rect x="5" y="10" fill="#3e3411"/><rect x="8" y="10" fill="#000000"/><rect x="9" y="10" fill="#000002"/><rect x="12" y="10"/><rect x="13" y="10" fill="#403310"/><rect x="18" y="10" fill="#3e3411"/><rect x="19" y="10" fill="#8f865f"/><rect x="20" y="10" fill="#eef2f1"/><rect x="3" y="11" fill="#cfceca"/><rect x="4" y="11" fill="#6c5509"/><rect x="5" y="11" fill="#f1d81b"/><rect x="6" y="11" fill="#423312"/><rect x="12" y="11"/><rect x="13" y="11"/><rect x="15" y="11" fill="#3e3313"/><rect x="16" y="11" fill="#000000"/><rect x="18" y="11" fill="#403310"/><rect x="19" y="11" fill="#6b5309"/><rect x="20" y="11" fill="#d2cec5"/><rect x="3" y="12" fill="#a09579"/><rect x="4" y="12" fill="#af8d11"/><rect x="5" y="12" fill="#f9db1b"/><rect x="6" y="12" fill="#fee620"/><rect x="7" y="12" fill="#403310"/><rect x="8" y="12"/><rect x="9" y="12"/><rect x="10" y="12"/><rect x="11" y="12"/><rect x="12" y="12" fill="#ffe620"/><rect x="13" y="12"/><rect x="15" y="12" fill="#997004"/><rect x="16" y="12" fill="#000000"/><rect x="18" y="12" fill="#403310"/><rect x="19" y="12" fill="#9e7509"/><rect x="20" y="12" fill="#a09579"/><rect x="3" y="13" fill="#76643c"/><rect x="4" y="13" fill="#d9b614"/><rect x="5" y="13" fill="#fbdd1b"/><rect x="6" y="13" fill="#ffe620"/><rect x="7" y="13" fill="#fde81f"/><rect x="8" y="13" fill="#fee620"/><rect x="9" y="13" fill="#fee620"/><rect x="10" y="13" fill="#fee620"/><rect x="11" y="13" fill="#fee620"/><rect x="12" y="13" fill="#ffe620"/><rect x="13" y="13" fill="#fee821"/><rect x="14" y="13" fill="#413310"/><rect x="18" y="13" fill="#403310"/><rect x="19" y="13" fill="#be9309"/><rect x="20" y="13" fill="#78653b"/><rect x="3" y="14" fill="#6b5523"/><rect x="4" y="14" fill="#eac618"/><rect x="5" y="14" fill="#3e350c"/><rect x="6" y="14" fill="#ffe51f"/><rect x="7" y="14" fill="#ffe620"/><rect x="8" y="14" fill="#ffe620"/><rect x="9" y="14" fill="#ffe620"/><rect x="10" y="14" fill="#ffe620"/><rect x="11" y="14" fill="#ffe620"/><rect x="12" y="14" fill="#ffe620"/><rect x="13" y="14" fill="#ffe620"/><rect x="14" y="14" fill="#ffe51f"/><rect x="15" y="14" fill="#423210"/><rect x="16" y="14" fill="#403310"/><rect x="17" y="14" fill="#403310"/><rect x="18" y="14" fill="#e7bc17"/><rect x="19" y="14" fill="#ce9c07"/><rect x="20" y="14" fill="#64501b"/><rect x="3" y="15" fill="#65501b"/><rect x="4" y="15" fill="#e6c619"/><rect x="5" y="15" fill="#3e3410"/><rect x="6" y="15" fill="#3e3410"/><rect x="7" y="15" fill="#fee71f"/><rect x="8" y="15" fill="#ffe620"/><rect x="9" y="15" fill="#ffe620"/><rect x="10" y="15" fill="#ffe620"/><rect x="11" y="15" fill="#ffe620"/><rect x="12" y="15" fill="#ffe620"/><rect x="13" y="15" fill="#ffe620"/><rect x="14" y="15" fill="#ffe620"/><rect x="15" y="15" fill="#fde61e"/><rect x="16" y="15" fill="#fbda1d"/><rect x="17" y="15" fill="#efd016"/><rect x="18" y="15" fill="#e4b50f"/><rect x="19" y="15" fill="#cc9a07"/><rect x="20" y="15" fill="#695520"/><rect x="3" y="16" fill="#78653b"/><rect x="4" y="16" fill="#d3b215"/><rect x="5" y="16"/><rect x="6" y="16" fill="#000000"/><rect x="7" y="16" fill="#403310"/><rect x="8" y="16"/><rect x="9" y="16"/><rect x="10" y="16" fill="#ffe620"/><rect x="11" y="16" fill="#ffe620"/><rect x="12" y="16" fill="#ffe620"/><rect x="13" y="16" fill="#ffe620"/><rect x="14" y="16" fill="#ffe620"/><rect x="15" y="16" fill="#403310"/><rect x="16" y="16"/><rect x="17" y="16"/><rect x="18" y="16"/><rect x="19" y="16" fill="#bd8d07"/><rect x="20" y="16" fill="#78653b"/><rect x="3" y="17" fill="#a39676"/><rect x="4" y="17" fill="#ab840d"/><rect x="5" y="17" fill="#f3cc15"/><rect x="6" y="17" fill="#010101"/><rect x="7" y="17" fill="#010000"/><rect x="8" y="17" fill="#000000"/><rect x="10" y="17" fill="#413310"/><rect x="11" y="17"/><rect x="12" y="17"/><rect x="13" y="17"/><rect x="14" y="17"/><rect x="15" y="17" fill="#010100"/><rect x="16" y="17" fill="#000000"/><rect x="17" y="17" fill="#000000"/><rect x="18" y="17" fill="#3e3410"/><rect x="19" y="17" fill="#9a7004"/><rect x="20" y="17" fill="#a09579"/><rect x="3" y="18" fill="#d5cec4"/><rect x="4" y="18" fill="#6c5509"/><rect x="5" y="18" fill="#e5bf12"/><rect x="6" y="18" fill="#3f360f"/><rect x="7" y="18" fill="#010000"/><rect x="8" y="18" fill="#000000"/><rect x="11" y="18" fill="#000000"/><rect x="12" y="18" fill="#000000"/><rect x="15" y="18" fill="#000002"/><rect x="16" y="18" fill="#000000"/><rect x="17" y="18" fill="#3f360f"/><rect x="18" y="18" fill="#cf9905"/><rect x="19" y="18" fill="#6d5107"/><rect x="20" y="18" fill="#d2cec5"/><rect x="3" y="19" fill="#f0f2ed"/><rect x="4" y="19" fill="#928563"/><rect x="5" y="19" fill="#a2820b"/><rect x="6" y="19" fill="#eac212"/><rect x="7" y="19" fill="#413310"/><rect x="8" y="19" fill="#000000"/><rect x="10" y="19" fill="#c38a00"/><rect x="11" y="19" fill="#000201"/><rect x="12" y="19" fill="#000000"/><rect x="15" y="19" fill="#000000"/><rect x="16" y="19" fill="#403310"/><rect x="17" y="19" fill="#d6a30c"/><rect x="18" y="19" fill="#967204"/><rect x="19" y="19" fill="#91855f"/><rect x="20" y="19" fill="#eef2f3"/><rect x="4" y="20" fill="#dedfda"/><rect x="5" y="20" fill="#695520"/><rect x="6" y="20" fill="#b68d0d"/><rect x="7" y="20" fill="#e6bd13"/><rect x="8" y="20"/><rect x="9" y="20" fill="#000000"/><rect x="10" y="20" fill="#000000"/><rect x="11" y="20" fill="#000000"/><rect x="12" y="20" fill="#000000"/><rect x="15" y="20" fill="#403310"/><rect x="16" y="20" fill="#d7a10d"/><rect x="17" y="20" fill="#ae7d04"/><rect x="18" y="20" fill="#64501b"/><rect x="19" y="20" fill="#dedfda"/><rect x="5" y="21" fill="#dddad3"/><rect x="6" y="21" fill="#725f34"/><rect x="7" y="21" fill="#8b6e08"/><rect x="8" y="21" fill="#daae11"/><rect x="9" y="21" fill="#40320f"/><rect x="10" y="21" fill="#403310"/><rect x="11" y="21" fill="#403310"/><rect x="12" y="21" fill="#403310"/><rect x="13" y="21"/><rect x="14" y="21"/><rect x="15" y="21" fill="#cb9c06"/><rect x="16" y="21" fill="#896504"/><rect x="17" y="21" fill="#735d2c"/><rect x="18" y="21" fill="#d5d8d1"/><rect x="6" y="22" fill="#e6e5e3"/><rect x="7" y="22" fill="#a39578"/><rect x="8" y="22" fill="#685008"/><rect x="9" y="22" fill="#9e7408"/><rect x="10" y="22" fill="#c29309"/><rect x="11" y="22" fill="#d4a10a"/><rect x="12" y="22" fill="#d5a10d"/><rect x="13" y="22" fill="#bb8906"/><rect x="14" y="22" fill="#9a7002"/><rect x="15" y="22" fill="#694708"/><rect x="16" y="22" fill="#a09579"/><rect x="17" y="22" fill="#e5e7e6"/><rect x="7" y="23" fill="#edf1f0"/><rect x="8" y="23" fill="#d6d2c9"/><rect x="9" y="23" fill="#a39a7b"/><rect x="10" y="23" fill="#79663b"/><rect x="11" y="23" fill="#5e4715"/><rect x="12" y="23" fill="#5d4715"/><rect x="13" y="23" fill="#78663e"/><rect x="14" y="23" fill="#a0997d"/><rect x="15" y="23" fill="#d4d4cc"/><rect x="16" y="23" fill="#eef2f1"/><style>rect{width:1px;height:1px}rect:not([fill]){fill:#413411}</style>
    <script href="../dist/dist.window.svgmodule.js"/>
    <script href="pipik.js"/>
</svg>
